<svg
        xmlns="http://www.w3.org/2000/svg"
        x="0px"
        y="0px"
        width="100"
        height="100"
        viewBox="0 0 48 48"
      >
        <path
          fill="#4b7bb2"
          d="M35.718,43.986c-3.092,0.147-7.816,0.585-12.801,0.556c-2.809-0.016-10.211,0.173-10.211,0.173	c-4.728,0-8.45-3.76-9.041-8.451c-0.202-1.601-0.767-4.98-0.58-6.478c0.398-3.196-0.219-8.009-0.083-9.326	c0.617-5.993,0.318-6.244,0.083-8.308C2.549,7.453,6.923,3.356,11.646,3.59c4.112,0.203,12.317,1.221,16.447,0.854	c3.11-0.276,5.41-0.727,7.224-0.854c4.717-0.33,8.529,2.544,8.561,8.561c0.009,1.612,0.585,3.57,0.527,6.425	c-0.07,3.469-0.495,6.546-0.527,8.105c-0.047,2.285-0.008,6.856,0,9.142C43.894,40.55,42.147,43.679,35.718,43.986z"
        ></path>
        <path
          fill="#010101"
          d="M12.718,45.215c-4.812,0-8.912-3.822-9.549-8.889c-0.038-0.303-0.089-0.671-0.146-1.078	c-0.25-1.792-0.593-4.247-0.434-5.524c0.243-1.95,0.094-4.603-0.014-6.541c-0.07-1.252-0.125-2.241-0.07-2.775	c0.516-5.003,0.388-5.929,0.195-7.331c-0.037-0.265-0.075-0.545-0.112-0.869C2.333,9.977,3.13,7.692,4.774,5.939	c1.79-1.908,4.371-2.968,6.896-2.849c1.284,0.063,2.983,0.208,4.781,0.36c3.917,0.332,8.791,0.745,11.596,0.496	c1.625-0.145,3.025-0.336,4.26-0.506c1.125-0.155,2.097-0.288,2.974-0.349c2.527-0.177,4.811,0.548,6.421,2.041	c1.734,1.608,2.659,4.035,2.675,7.017c0.003,0.624,0.098,1.313,0.207,2.113c0.167,1.215,0.354,2.592,0.32,4.324	c-0.042,2.096-0.212,4.042-0.349,5.606c-0.089,1.015-0.165,1.891-0.178,2.499c-0.038,1.801-0.021,5.06-0.008,7.439l0.008,1.69	c0.02,5.707-2.644,8.379-8.636,8.665l0,0c-0.854,0.041-1.834,0.104-2.909,0.173c-2.806,0.181-6.296,0.4-9.919,0.384	C20.14,45.031,12.792,45.213,12.718,45.215z M11.267,4.081c-2.124,0-4.255,0.935-5.763,2.542c-1.464,1.561-2.147,3.504-1.923,5.472	c0.036,0.316,0.074,0.588,0.109,0.846c0.203,1.473,0.336,2.447-0.191,7.57c-0.047,0.456,0.009,1.458,0.074,2.617	c0.116,2.085,0.261,4.68,0.007,6.72c-0.143,1.146,0.204,3.623,0.433,5.262c0.057,0.412,0.109,0.784,0.148,1.091	c0.575,4.569,4.248,8.014,8.544,8.014c0.061-0.001,7.438-0.179,10.214-0.173c3.582,0.024,7.059-0.202,9.849-0.382	c1.082-0.069,2.066-0.133,2.926-0.174l0,0c5.475-0.261,7.701-2.48,7.684-7.662l-0.008-1.688c-0.013-2.385-0.03-5.651,0.008-7.465	c0.013-0.641,0.091-1.533,0.182-2.565c0.135-1.549,0.304-3.477,0.345-5.54c0.034-1.653-0.149-2.989-0.311-4.168	c-0.114-0.834-0.212-1.555-0.216-2.243c-0.015-2.699-0.829-4.873-2.355-6.289c-1.425-1.322-3.389-1.938-5.671-1.776	c-0.843,0.059-1.799,0.19-2.907,0.342c-1.246,0.171-2.659,0.365-4.307,0.511C25.245,5.201,20.53,4.8,16.368,4.447	c-1.79-0.151-3.479-0.295-4.747-0.357C11.503,4.083,11.385,4.081,11.267,4.081z"
        ></path>
        <path
          fill="#d6e5e5"
          d="M24.11,7.317c0.508,0.847,1.226,1.291,1.586,2.228c0.364,0.947,0.828,1.872,1.34,2.752 c0.513,0.879,2.634,4.455,2.719,5.287c0.701-0.008,1.587,0.363,2.291,0.493c0.808,0.149,5.131,0.785,6.549,1.034 c0.744,0.131,1.632,0.089,2.288,0.468c0.439,0.254,0.582,0.106,0.359,0.66c-0.103,0.257-0.715,0.702-0.929,0.94 c-1.231,1.365-5.788,6.804-7.273,7.641c0.517,1.97,0.717,3.999,1.016,6.008c0.154,1.039,0.343,2.068,0.591,3.089 c0.182,0.747,0.548,1.682,0.231,2.44c-0.356-0.156-2.982-1.387-3.941-1.815c-0.626-0.28-1.325-0.381-1.939-0.682 c-1.604-0.786-2.723-2.277-4.606-2.491c-0.809-0.092-1.031,0.272-1.697,0.655c-0.486,0.279-1.056,0.447-1.58,0.642 c-1.603,0.596-2.957,1.724-4.568,2.269c-1.268,0.429-2.502,0.978-3.778,1.351c-0.143-1.137,0.211-2.27,0.461-3.366 c0.414-1.818,0.598-3.68,1.031-5.493c0.187-0.784,0.5-1.543,0.57-2.343c0.062-0.697-0.139-0.947-0.666-1.322 c-0.646-0.46-1.23-0.993-1.872-1.455c-0.506-0.363-2.969-2.747-3.557-3.722c-0.532-0.882-1.258-1.681-1.684-2.62 c-0.42-0.924,0.336-0.934,1.158-1.283c1.001-0.424,2.318-0.27,3.383-0.351c1.779-0.136,3.536-0.422,5.309-0.594 c1.014-0.099,1.134,0.297,1.553-0.769c0.723-1.84,3.631-6.539,3.954-7.419c0.332-0.906,0.909-1.637,1.417-2.446L24.11,7.317z"
        ></path>
        <path
          fill="#010101"
          d="M34.876,40.857c-0.068,0-0.137-0.014-0.201-0.042c-0.15-0.066-0.7-0.321-1.36-0.627 c-0.908-0.421-2.027-0.94-2.583-1.188c-0.275-0.123-0.565-0.208-0.855-0.293c-0.363-0.107-0.738-0.219-1.101-0.396 c-0.627-0.308-1.174-0.708-1.703-1.095c-0.863-0.631-1.677-1.228-2.739-1.349c-0.391-0.043-0.542,0.034-0.927,0.295 c-0.137,0.093-0.286,0.194-0.464,0.296c-0.412,0.236-0.857,0.394-1.288,0.545l-0.367,0.132c-0.731,0.272-1.405,0.659-2.119,1.068 c-0.776,0.446-1.58,0.907-2.463,1.206c-0.511,0.173-1.016,0.366-1.52,0.558c-0.739,0.281-1.503,0.573-2.278,0.799 c-0.14,0.041-0.292,0.019-0.415-0.062c-0.123-0.081-0.204-0.21-0.222-0.356c-0.131-1.044,0.111-2.044,0.345-3.012l0.125-0.527 c0.195-0.856,0.341-1.745,0.483-2.604c0.157-0.95,0.319-1.933,0.549-2.895c0.066-0.277,0.147-0.551,0.229-0.825 c0.148-0.499,0.288-0.97,0.33-1.446c0.042-0.475-0.031-0.566-0.458-0.871c-0.337-0.24-0.658-0.499-0.979-0.758 c-0.294-0.238-0.588-0.476-0.896-0.697c-0.522-0.376-3.042-2.791-3.693-3.87c-0.2-0.332-0.428-0.65-0.656-0.97 c-0.38-0.532-0.773-1.083-1.055-1.702c-0.185-0.406-0.214-0.746-0.089-1.038c0.188-0.44,0.641-0.598,1.079-0.752 c0.135-0.047,0.28-0.098,0.428-0.16c0.801-0.339,1.754-0.35,2.595-0.359c0.327-0.004,0.646-0.007,0.945-0.03 c1.004-0.077,2.023-0.204,3.009-0.328c0.762-0.096,1.524-0.191,2.29-0.266c0.297-0.029,0.527-0.021,0.709-0.013l0.156,0.004 c0.061-0.003,0.128-0.083,0.271-0.446c0.428-1.089,1.546-3.058,2.532-4.794c0.666-1.171,1.294-2.278,1.417-2.614 c0.269-0.735,0.682-1.355,1.081-1.955c0.128-0.193,0.257-0.387,0.382-0.585c0.074-0.118,0.195-0.2,0.333-0.226 c0.138-0.025,0.28,0.008,0.391,0.092l0.285,0.214c0.052,0.039,0.095,0.087,0.128,0.143c0.188,0.314,0.413,0.57,0.65,0.84 c0.36,0.411,0.732,0.835,0.975,1.465c0.329,0.855,0.768,1.757,1.306,2.679l0.116,0.199c1.487,2.54,2.29,4.061,2.563,4.866 c0.407,0.05,0.812,0.165,1.207,0.277c0.273,0.077,0.539,0.154,0.783,0.199c0.379,0.07,1.536,0.248,2.801,0.442 c1.428,0.219,2.993,0.459,3.744,0.592c0.209,0.037,0.431,0.059,0.655,0.082c0.582,0.059,1.242,0.125,1.796,0.446 c0.084,0.048,0.155,0.078,0.212,0.102c0.658,0.279,0.53,0.754,0.36,1.177c-0.104,0.257-0.355,0.491-0.728,0.817 c-0.118,0.104-0.228,0.198-0.294,0.271c-0.233,0.259-0.588,0.666-1.019,1.161c-2.263,2.6-4.749,5.405-6.054,6.366 c0.347,1.423,0.546,2.878,0.739,4.29c0.065,0.475,0.13,0.95,0.2,1.424c0.168,1.127,0.358,2.123,0.582,3.044 c0.03,0.125,0.066,0.256,0.103,0.39c0.192,0.702,0.432,1.575,0.104,2.36c-0.052,0.124-0.151,0.222-0.275,0.272 C35.002,40.846,34.939,40.857,34.876,40.857z M24.152,34.855c0.091,0,0.189,0.005,0.295,0.018c1.325,0.151,2.287,0.854,3.216,1.535 c0.517,0.378,1.005,0.736,1.553,1.004c0.287,0.141,0.606,0.235,0.944,0.336c0.321,0.095,0.653,0.194,0.979,0.339 c0.559,0.25,1.683,0.771,2.596,1.194c0.283,0.131,0.545,0.253,0.764,0.354c-0.009-0.375-0.125-0.795-0.23-1.181 c-0.04-0.144-0.078-0.284-0.11-0.418c-0.231-0.951-0.427-1.976-0.6-3.133c-0.071-0.478-0.136-0.957-0.202-1.436 c-0.205-1.497-0.416-3.045-0.803-4.519c-0.058-0.22,0.04-0.451,0.238-0.563c1.126-0.635,4.373-4.364,6.117-6.367 c0.436-0.5,0.794-0.912,1.03-1.174c0.086-0.095,0.226-0.219,0.377-0.353c0.126-0.111,0.348-0.305,0.438-0.414 c-0.04-0.02-0.08-0.041-0.122-0.065c-0.368-0.213-0.868-0.264-1.396-0.317c-0.25-0.025-0.496-0.05-0.729-0.092 c-0.746-0.131-2.301-0.37-3.721-0.588c-1.279-0.196-2.448-0.376-2.831-0.447c-0.272-0.05-0.57-0.134-0.874-0.22 c-0.458-0.13-0.932-0.264-1.302-0.264c-0.257,0-0.496-0.194-0.522-0.449c-0.025-0.25-0.389-1.218-2.536-4.886l-0.117-0.2 c-0.564-0.969-1.027-1.919-1.375-2.825c-0.178-0.463-0.463-0.788-0.792-1.165c-0.18-0.205-0.363-0.414-0.538-0.655 c-0.016,0.024-0.032,0.048-0.048,0.072c-0.384,0.576-0.746,1.121-0.974,1.745c-0.145,0.394-0.659,1.307-1.487,2.764 c-0.922,1.624-2.069,3.644-2.471,4.666c-0.281,0.717-0.544,1.081-1.202,1.081l-0.197-0.005c-0.147-0.006-0.33-0.015-0.571,0.009 c-0.756,0.074-1.509,0.168-2.262,0.263c-0.998,0.125-2.029,0.254-3.057,0.333c-0.319,0.024-0.661,0.029-1.01,0.033 c-0.785,0.009-1.597,0.018-2.216,0.28c-0.167,0.071-0.333,0.129-0.487,0.183c-0.171,0.06-0.426,0.149-0.493,0.21 c0.008,0.007,0.017,0.078,0.082,0.222c0.241,0.531,0.589,1.018,0.958,1.534c0.244,0.341,0.486,0.682,0.699,1.035 c0.554,0.917,2.973,3.253,3.42,3.575c0.323,0.232,0.632,0.481,0.941,0.731c0.305,0.247,0.609,0.493,0.93,0.721 c0.629,0.448,0.955,0.863,0.874,1.773c-0.051,0.577-0.212,1.119-0.368,1.643c-0.076,0.256-0.152,0.513-0.214,0.772 c-0.222,0.927-0.381,1.893-0.535,2.826c-0.144,0.874-0.293,1.777-0.495,2.662l-0.128,0.54c-0.163,0.675-0.331,1.368-0.351,2.043 c0.535-0.179,1.07-0.383,1.592-0.582c0.516-0.197,1.033-0.394,1.556-0.571c0.792-0.268,1.518-0.685,2.287-1.126 c0.717-0.412,1.459-0.837,2.268-1.138l0.382-0.137c0.389-0.137,0.791-0.279,1.124-0.47c0.154-0.088,0.282-0.176,0.399-0.256 C23.191,35.099,23.55,34.855,24.152,34.855z"
        ></path>
        <path
          fill="#ed488b"
          d="M24.181,11.456c0.968,2.905,2.993,5.373,4.15,8.201c0.057,0.14,3.849,0.31,4.215,0.361	c0.874,0.12,1.722,0.395,2.601,0.487c0.828,0.087,1.719-0.1,2.522,0.153c0.118,0.037-1.41,1.501-1.56,1.61	c-0.727,0.53-1.521,0.97-2.15,1.624c-0.677,0.703-1.137,1.58-1.816,2.285c-0.438,0.455-1.393,1.079-1.455,1.767	c-0.022,0.24,0.335,0.796,0.417,1.052c0.458,1.435,0.563,2.944,0.849,4.415c0.154,0.793,1.187,2.839,0.794,3.598	c-0.016,0.031-0.012,0.167-0.012,0.205c-1.573-0.653-3.043-1.465-4.557-2.291c-1.399-0.763-3.316-1.324-4.499-2.395	c0.217,0.197-2.405,1.577-2.557,1.647c-1.967,0.914-3.98,2.267-6.056,2.879c0.536-0.158,0.978-2.943,1.1-3.483	c0.443-1.953,1.458-4.46,1.151-6.479c0.021,0.14-0.987-0.413-1.09-0.488c-0.468-0.345-0.894-0.761-1.316-1.16	c-1.543-1.461-3.541-2.904-4.774-4.637c0.733,0.571,2.895-0.243,3.678-0.414c1.069-0.232,2.135-0.48,3.21-0.68	c0.647-0.121,2.139-0.066,2.657-0.493c0.254-0.21,0.45-0.913,0.639-1.202c0.437-0.671,0.727-1.386,0.985-2.153	c0.347-1.033,0.853-2.001,1.37-2.957c0.301-0.558,1.623-1.957,1.412-2.594C24.09,10.314,24.18,11.455,24.181,11.456z"
        ></path>
        <path
          fill="#8a4581"
          d="M23.804,12.242c0,1.21,0.206,2.65,0.27,3.943c0.063,1.27-0.055,2.515-0.055,3.783	c0,1.972,0.029,3.955-0.084,5.901c-0.451-0.286-0.716-1.12-1.038-1.565c-0.457-0.629-0.986-1.153-1.443-1.785	c-0.463-0.639-0.816-1.356-1.289-1.998c-0.639-0.869-0.766-0.828-0.127-1.709c0.793-1.094,1.019-2.461,1.61-3.697	c0.392-0.821,0.703-3.324,1.872-3.534c0.042-0.038,0.091-0.054,0.146-0.046C23.794,11.695,23.798,12.27,23.804,12.242z"
        ></path>
        <path
          fill="#8a4581"
          d="M11.028,21.377c1.129-0.165,2.554,0.736,3.569,1.13c1.406,0.545,2.995,0.664,4.354,1.295	c1.188,0.552,2.337,0.832,3.569,1.198c0.319,0.095,1.577,0.465,1.29,0.951c-0.067,0.113-1.549,0.228-1.789,0.264	c-1.045,0.155-2.118,0.115-3.14,0.371c-1.269,0.318-1.995,0.623-3.212-0.087c-1.116-0.651-1.854-1.351-2.623-2.409	c-0.345-0.474-0.642-0.975-1.031-1.424C11.73,22.339,10.75,21.418,11.028,21.377z"
        ></path>
        <path
          fill="#8a4581"
          d="M23.733,25.731c-1.185,2.041-2.77,4.051-4.424,5.708c-0.792,0.793-1.165,1.77-1.731,2.715	c-0.601,1.004-1.349,1.776-2.116,2.656c0.04,0.07,0.072,0.121,0.132,0.193c1.229-0.568,2.484-1.223,3.713-1.922	c1.115-0.634,2.108-1.408,3.283-1.908c0.733-0.312,1.005-0.542,1.071-1.304c0.06-0.69,0.044-1.389,0.071-2.072	C23.787,28.451,23.572,27.051,23.733,25.731z"
        ></path>
        <path
          fill="#8a4581"
          d="M23.804,25.874c0.595,0.947,0.939,2.108,1.711,2.923c0.963,1.017,1.735,2.009,2.785,2.93	c0.929,0.814,1.682,1.5,2.336,2.569c0.633,1.036,1.274,1.827,2.107,2.691c0.52-0.867-0.527-3.001-0.89-3.904	c-0.559-1.392-0.861-2.792-0.999-4.267c-0.093-0.994-0.17-0.947-1.126-1.175c-0.65-0.155-1.214-0.472-1.856-0.678	c-1.179-0.379-2.411-0.6-3.569-1.071C24.031,25.781,23.945,26.072,23.804,25.874z"
        ></path>
        <path
          fill="#8a4581"
          d="M23.804,25.803c1.103-0.198,2.683-0.907,3.783-1.37c1.145-0.482,2.275-1.011,3.426-1.467	c1.112-0.44,2.3-0.944,3.426-1.307c0.769-0.248,2.832-0.327,3.206-1.131c-0.945,0.282-2.62,0.062-3.563-0.075	c-1.225-0.178-2.295-0.511-3.569-0.575c-0.574-0.029-1.207-0.223-1.784-0.143c-0.682,0.094-0.95,0.752-1.424,1.269	c-1.014,1.106-2.17,2.252-2.914,3.584c-0.211,0.378-0.394,0.768-0.573,1.163C23.751,25.763,23.747,25.923,23.804,25.803z"
        ></path>
        <g>
          <path
            fill="#010101"
            d="M32.735,37.715c-0.065,0-0.13-0.013-0.191-0.038c-1.528-0.634-2.925-1.396-4.403-2.203l-0.202-0.11 c-0.459-0.25-0.977-0.479-1.525-0.72c-0.937-0.413-1.9-0.837-2.684-1.425c-0.802,0.661-2.376,1.403-2.397,1.413 c-0.672,0.312-1.34,0.671-2.047,1.052c-1.315,0.708-2.675,1.439-4.078,1.854h0l0,0c-0.267,0.083-0.543-0.073-0.621-0.338 c-0.07-0.238,0.045-0.487,0.261-0.591c0.136-0.168,0.373-0.787,0.746-2.718c0.037-0.188,0.065-0.336,0.085-0.426 c0.117-0.515,0.273-1.068,0.435-1.642c0.398-1.411,0.845-2.995,0.747-4.32c-0.423-0.176-0.923-0.488-0.929-0.492 c-0.441-0.325-0.839-0.703-1.224-1.068l-0.139-0.131c-0.461-0.437-0.963-0.872-1.473-1.313c-1.214-1.052-2.469-2.139-3.364-3.397 c-0.144-0.203-0.118-0.479,0.062-0.651c0.179-0.171,0.457-0.187,0.653-0.033c0.037,0.028,0.156,0.095,0.478,0.095 c0.622,0,1.491-0.247,2.125-0.426c0.264-0.075,0.493-0.14,0.661-0.176l0.765-0.168c0.818-0.181,1.637-0.361,2.46-0.515 c0.209-0.039,0.499-0.062,0.818-0.086c0.513-0.039,1.373-0.104,1.613-0.301c0.069-0.068,0.202-0.379,0.272-0.545 c0.091-0.213,0.181-0.414,0.266-0.544c0.444-0.683,0.719-1.415,0.93-2.04c0.155-0.459,0.65-1.31,1.224-2.294 c0.572-0.982,1.53-2.626,1.544-3.011c-0.083-0.251,0.05-0.487,0.295-0.586c0.246-0.098,0.531,0.047,0.645,0.286 c0.03,0.063,2.94,6.215,4.155,9.133c0.541,0.072,1.998,0.161,2.748,0.207c0.585,0.036,1.051,0.065,1.169,0.082 c0.415,0.057,0.824,0.147,1.233,0.238c0.465,0.103,0.905,0.2,1.352,0.248c0.167,0.018,0.338,0.022,0.511,0.022l0.817-0.012 c0.384,0,0.837,0.019,1.292,0.163c0.18,0.057,0.318,0.217,0.349,0.403c0.093,0.575-1.748,2.074-1.767,2.087 c-0.646,0.472-2.987,2.903-3.756,3.702l-0.144,0.149c-0.118,0.123-0.271,0.257-0.435,0.401c-0.36,0.315-0.854,0.748-0.882,1.064 c0.027,0.285,0.731,3.03,0.825,3.326c0.446,1.396,1.228,5.714,1.226,5.906c-0.002,0.166-0.086,0.32-0.225,0.411 C32.927,37.688,32.832,37.715,32.735,37.715z M23.68,32.03c0.12,0,0.24,0.043,0.335,0.129c0.719,0.651,1.778,1.118,2.802,1.569 c0.543,0.239,1.105,0.487,1.601,0.757l0.202,0.11c1.174,0.641,2.296,1.253,3.462,1.788c-0.242-1.333-0.711-3.782-1.025-4.765 c-0.01-0.03-0.905-3.309-0.868-3.719c0.065-0.715,0.705-1.276,1.22-1.727c0.141-0.124,0.272-0.238,0.374-0.343l0.143-0.149 c1.476-1.533,3.252-3.352,3.888-3.816c0.104-0.083,0.525-0.484,0.884-0.844c-0.058-0.001-0.115-0.001-0.17-0.001l-0.817,0.012 c-0.208,0-0.413-0.007-0.616-0.028c-0.503-0.053-0.991-0.161-1.462-0.266c-0.383-0.084-0.766-0.17-1.154-0.224 c-0.111-0.015-0.547-0.041-1.094-0.074c-3.357-0.206-3.366-0.228-3.516-0.592c-0.848-2.072-2.761-6.187-3.696-8.182 c-0.27,0.544-0.678,1.266-1.251,2.25c-0.5,0.859-1.018,1.748-1.14,2.11c-0.231,0.685-0.535,1.49-1.04,2.267 c-0.061,0.093-0.119,0.239-0.184,0.391c-0.15,0.353-0.306,0.718-0.556,0.925c-0.485,0.399-1.382,0.467-2.174,0.527 c-0.277,0.021-0.529,0.039-0.71,0.072c-0.813,0.151-1.621,0.33-2.428,0.508l-0.768,0.169c-0.153,0.033-0.361,0.093-0.601,0.161 c-0.57,0.162-1.315,0.373-1.985,0.442c0.722,0.788,1.578,1.53,2.414,2.254c0.521,0.452,1.035,0.896,1.506,1.343l0.14,0.132 c0.362,0.344,0.737,0.7,1.128,0.988c0.091,0.061,0.542,0.303,0.757,0.393c0.253-0.02,0.491,0.164,0.53,0.423 c0.243,1.601-0.277,3.446-0.736,5.073c-0.157,0.556-0.308,1.092-0.421,1.591c-0.019,0.083-0.045,0.221-0.079,0.395 c-0.172,0.891-0.324,1.566-0.473,2.073c0.912-0.383,1.822-0.872,2.71-1.351c0.688-0.37,1.4-0.753,2.099-1.078 c0.341-0.162,1.898-1.017,2.291-1.344c0.021-0.067,0.057-0.13,0.106-0.186C23.408,32.085,23.543,32.03,23.68,32.03z"
          ></path>
        </g>
      </svg>